<svg width="415" height="122" viewBox="0 0 415 122" fill="none" xmlns="http://www.w3.org/2000/svg">
<path opacity="0.4" d="M102.941 51.4705C102.941 79.8969 79.8969 102.941 51.4705 102.941C23.0441 102.941 0 79.8969 0 51.4705C0 23.0441 23.0441 0 51.4705 0C79.8969 0 102.941 23.0441 102.941 51.4705ZM19.5321 51.4705C19.5321 69.1096 33.8314 83.4089 51.4705 83.4089C69.1096 83.4089 83.4089 69.1096 83.4089 51.4705C83.4089 33.8314 69.1096 19.5321 51.4705 19.5321C33.8314 19.5321 19.5321 33.8314 19.5321 51.4705Z" fill="white"/>
<circle cx="51.4703" cy="51.4705" r="22.7428" fill="white"/>
<path fill-rule="evenodd" clip-rule="evenodd" d="M51.4701 99.4739L35.9092 100.547C35.9092 100.547 37.6254 101.151 38.5752 102.255C39.6596 103.515 46.1694 113.724 49.504 118.984C50.3855 120.375 50.8295 121.075 51.4701 121.094V99.4739Z" fill="white"/>
<path fill-rule="evenodd" clip-rule="evenodd" d="M51.4704 99.4739L67.0312 100.547C67.0312 100.547 65.315 101.151 64.3652 102.255C63.2808 103.515 56.771 113.724 53.4365 118.984C52.5549 120.375 52.1109 121.075 51.4704 121.094V99.4739Z" fill="white"/>
<mask id="mask0_111_9139" style="mask-type:alpha" maskUnits="userSpaceOnUse" x="0" y="0" width="103" height="122">
<path d="M102.941 51.4705C102.941 79.8969 79.8969 102.941 51.4705 102.941C23.0441 102.941 0 79.8969 0 51.4705C0 23.0441 23.0441 0 51.4705 0C79.8969 0 102.941 23.0441 102.941 51.4705ZM19.5321 51.4705C19.5321 69.1096 33.8314 83.4089 51.4705 83.4089C69.1096 83.4089 83.4089 69.1096 83.4089 51.4705C83.4089 33.8314 69.1096 19.5321 51.4705 19.5321C33.8314 19.5321 19.5321 33.8314 19.5321 51.4705Z" fill="white"/>
<circle cx="51.4703" cy="51.4705" r="22.7428" fill="white"/>
<path fill-rule="evenodd" clip-rule="evenodd" d="M51.4701 99.4739L35.9092 100.547C35.9092 100.547 37.6254 101.151 38.5752 102.255C39.6596 103.515 46.1694 113.724 49.504 118.984C50.3855 120.375 50.8295 121.075 51.4701 121.094V99.4739Z" fill="white"/>
<path fill-rule="evenodd" clip-rule="evenodd" d="M51.4704 99.4739L67.0312 100.547C67.0312 100.547 65.315 101.151 64.3652 102.255C63.2808 103.515 56.771 113.724 53.4365 118.984C52.5549 120.375 52.1109 121.075 51.4704 121.094V99.4739Z" fill="white"/>
</mask>
<g mask="url(#mask0_111_9139)">
<circle cx="51.6543" cy="142.703" r="68.0488" fill="white"/>
</g>
<path d="M138.182 36.5828V49.9029H155.05V56.5941H138.182V74.9247H129.779V29.9227H158.162V36.5828H138.182ZM171.727 42.9939V74.9247H164.009V42.9939H171.727ZM172.785 33.6885C172.785 34.3524 172.65 34.9748 172.38 35.5558C172.111 36.1367 171.748 36.645 171.291 37.0807C170.855 37.5164 170.337 37.8692 169.735 38.1389C169.133 38.3878 168.49 38.5123 167.806 38.5123C167.142 38.5123 166.509 38.3878 165.907 38.1389C165.326 37.8692 164.818 37.5164 164.382 37.0807C163.946 36.645 163.594 36.1367 163.324 35.5558C163.075 34.9748 162.951 34.3524 162.951 33.6885C162.951 33.0038 163.075 32.3606 163.324 31.7589C163.594 31.1572 163.946 30.6385 164.382 30.2028C164.818 29.7671 165.326 29.4248 165.907 29.1758C166.509 28.9061 167.142 28.7712 167.806 28.7712C168.49 28.7712 169.133 28.9061 169.735 29.1758C170.337 29.4248 170.855 29.7671 171.291 30.2028C171.748 30.6385 172.111 31.1572 172.38 31.7589C172.65 32.3606 172.785 33.0038 172.785 33.6885ZM186.753 46.9152C187.396 46.272 188.07 45.6807 188.776 45.1413C189.502 44.5811 190.259 44.1142 191.048 43.7408C191.857 43.3466 192.718 43.0457 193.631 42.8383C194.544 42.61 195.539 42.4959 196.618 42.4959C198.361 42.4959 199.907 42.7968 201.256 43.3984C202.604 43.9794 203.725 44.8093 204.617 45.8882C205.53 46.9463 206.214 48.2223 206.671 49.7162C207.148 51.1892 207.386 52.818 207.386 54.6023V74.9247H199.699V54.6023C199.699 52.652 199.253 51.1478 198.361 50.0896C197.469 49.0107 196.11 48.4713 194.284 48.4713C192.956 48.4713 191.712 48.7721 190.55 49.3738C189.388 49.9755 188.288 50.795 187.251 51.8324V74.9247H179.564V42.9939H184.263C185.259 42.9939 185.913 43.4607 186.224 44.3943L186.753 46.9152ZM234.74 51.1478C233.868 50.0896 232.914 49.3427 231.876 48.907C230.86 48.4713 229.76 48.2534 228.577 48.2534C227.416 48.2534 226.368 48.4713 225.434 48.907C224.501 49.3427 223.702 50.0066 223.038 50.8988C222.374 51.7702 221.866 52.8906 221.513 54.2599C221.16 55.6085 220.984 57.2061 220.984 59.0527C220.984 60.92 221.129 62.5072 221.419 63.8143C221.731 65.1007 222.166 66.1588 222.727 66.9887C223.287 67.7979 223.971 68.3892 224.781 68.7626C225.59 69.1154 226.492 69.2917 227.488 69.2917C229.086 69.2917 230.445 68.9597 231.565 68.2958C232.686 67.6319 233.744 66.6879 234.74 65.4637V51.1478ZM242.427 28.6779V74.9247H237.727C236.711 74.9247 236.067 74.4579 235.798 73.5243L235.144 70.4432C233.858 71.9163 232.374 73.1093 230.694 74.0222C229.034 74.9351 227.094 75.3916 224.874 75.3916C223.131 75.3916 221.534 75.0285 220.081 74.3023C218.629 73.5761 217.374 72.5284 216.316 71.159C215.278 69.7689 214.469 68.0572 213.888 66.0239C213.328 63.9906 213.048 61.6669 213.048 59.0527C213.048 56.6874 213.369 54.4882 214.013 52.4549C214.656 50.4216 215.579 48.658 216.782 47.1642C217.986 45.6703 219.428 44.5085 221.108 43.6785C222.789 42.8279 224.677 42.4026 226.772 42.4026C228.557 42.4026 230.082 42.6826 231.347 43.2428C232.613 43.803 233.744 44.5603 234.74 45.5147V28.6779H242.427ZM275.008 38.1078C274.759 38.5435 274.489 38.865 274.199 39.0725C273.929 39.2593 273.587 39.3526 273.172 39.3526C272.736 39.3526 272.259 39.197 271.74 38.8858C271.242 38.5538 270.641 38.1907 269.935 37.7965C269.23 37.4023 268.4 37.0496 267.446 36.7384C266.512 36.4064 265.402 36.2405 264.116 36.2405C262.954 36.2405 261.937 36.3857 261.066 36.6762C260.194 36.9459 259.458 37.3297 258.856 37.8277C258.275 38.3256 257.839 38.9273 257.549 39.6327C257.258 40.3174 257.113 41.0747 257.113 41.9046C257.113 42.9627 257.404 43.8445 257.985 44.5499C258.586 45.2554 259.375 45.8571 260.35 46.355C261.325 46.853 262.435 47.299 263.68 47.6932C264.925 48.0875 266.201 48.5128 267.508 48.9692C268.815 49.4049 270.091 49.9236 271.336 50.5253C272.581 51.1063 273.691 51.8532 274.666 52.7661C275.641 53.6582 276.419 54.7579 277 56.065C277.602 57.3721 277.902 58.9593 277.902 60.8266C277.902 62.8599 277.55 64.7687 276.844 66.553C276.16 68.3166 275.143 69.8623 273.794 71.1901C272.467 72.4972 270.838 73.5346 268.908 74.3023C266.979 75.0492 264.769 75.4227 262.279 75.4227C260.848 75.4227 259.437 75.2775 258.047 74.987C256.657 74.7173 255.318 74.3231 254.032 73.8044C252.766 73.2857 251.573 72.6632 250.453 71.9371C249.333 71.2109 248.337 70.4017 247.465 69.5096L249.924 65.4949C250.132 65.2044 250.401 64.9658 250.733 64.7791C251.065 64.5716 251.418 64.4678 251.791 64.4678C252.31 64.4678 252.87 64.6857 253.472 65.1214C254.074 65.5364 254.789 66.0032 255.619 66.5219C256.449 67.0406 257.414 67.5178 258.514 67.9535C259.634 68.3684 260.972 68.5759 262.528 68.5759C264.914 68.5759 266.761 68.0157 268.068 66.8953C269.375 65.7542 270.029 64.1255 270.029 62.0092C270.029 60.8266 269.728 59.8618 269.126 59.1149C268.545 58.368 267.767 57.7456 266.792 57.2476C265.817 56.7289 264.707 56.2932 263.462 55.9405C262.217 55.5878 260.951 55.204 259.665 54.789C258.379 54.374 257.113 53.8761 255.868 53.2952C254.623 52.7142 253.513 51.9569 252.538 51.0233C251.563 50.0896 250.775 48.9277 250.173 47.5376C249.592 46.1268 249.302 44.3943 249.302 42.3403C249.302 40.7012 249.623 39.1036 250.266 37.5476C250.93 35.9915 251.885 34.6117 253.13 33.4084C254.374 32.205 255.91 31.2402 257.736 30.5141C259.561 29.7879 261.657 29.4248 264.022 29.4248C266.678 29.4248 269.126 29.8398 271.367 30.6697C273.608 31.4996 275.516 32.6615 277.093 34.1553L275.008 38.1078ZM311.32 42.9939L298.654 74.9247H291.683L279.016 42.9939H285.365C285.946 42.9939 286.423 43.1287 286.796 43.3984C287.191 43.6682 287.45 44.0105 287.574 44.4255L293.737 61.4802C294.069 62.4761 294.359 63.4512 294.608 64.4056C294.857 65.36 295.075 66.3144 295.262 67.2688C295.469 66.3144 295.697 65.36 295.946 64.4056C296.195 63.4512 296.496 62.4761 296.849 61.4802L303.135 44.4255C303.281 44.0105 303.54 43.6682 303.913 43.3984C304.287 43.1287 304.733 42.9939 305.252 42.9939H311.32ZM335.016 55.2869C335.016 54.291 334.871 53.3574 334.58 52.486C334.311 51.5938 333.896 50.8158 333.336 50.1519C332.775 49.4879 332.06 48.9692 331.188 48.5958C330.338 48.2016 329.342 48.0045 328.201 48.0045C325.98 48.0045 324.227 48.6373 322.941 49.9029C321.675 51.1685 320.866 52.9632 320.513 55.2869H335.016ZM320.358 59.9241C320.482 61.5632 320.773 62.9844 321.229 64.1878C321.686 65.3704 322.287 66.3559 323.034 67.1443C323.781 67.912 324.663 68.4929 325.68 68.8871C326.717 69.2606 327.858 69.4473 329.103 69.4473C330.348 69.4473 331.416 69.3021 332.309 69.0116C333.221 68.7211 334.01 68.3996 334.674 68.0468C335.358 67.6941 335.95 67.3725 336.448 67.0821C336.966 66.7916 337.464 66.6464 337.942 66.6464C338.585 66.6464 339.062 66.885 339.373 67.3622L341.583 70.1631C340.732 71.159 339.778 71.9993 338.72 72.684C337.662 73.3479 336.551 73.8874 335.39 74.3023C334.248 74.6965 333.076 74.9766 331.873 75.1426C330.69 75.3086 329.539 75.3916 328.418 75.3916C326.198 75.3916 324.134 75.0285 322.225 74.3023C320.316 73.5554 318.657 72.4661 317.246 71.0345C315.835 69.5822 314.725 67.7979 313.916 65.6816C313.106 63.5446 312.702 61.0756 312.702 58.2746C312.702 56.0961 313.055 54.0524 313.76 52.1436C314.465 50.2141 315.472 48.5439 316.779 47.1331C318.107 45.7015 319.715 44.5707 321.603 43.7408C323.512 42.9109 325.659 42.4959 328.045 42.4959C330.057 42.4959 331.914 42.8175 333.616 43.4607C335.317 44.1039 336.78 45.0479 338.004 46.2928C339.228 47.5169 340.182 49.0315 340.867 50.8365C341.572 52.6208 341.925 54.6645 341.925 56.9675C341.925 58.1294 341.801 58.9178 341.552 59.3328C341.303 59.727 340.826 59.9241 340.12 59.9241H320.358ZM354.883 46.9152C355.526 46.272 356.2 45.6807 356.906 45.1413C357.632 44.5811 358.389 44.1142 359.178 43.7408C359.987 43.3466 360.848 43.0457 361.761 42.8383C362.674 42.61 363.67 42.4959 364.749 42.4959C366.491 42.4959 368.037 42.7968 369.386 43.3984C370.734 43.9794 371.855 44.8093 372.747 45.8882C373.66 46.9463 374.344 48.2223 374.801 49.7162C375.278 51.1892 375.517 52.818 375.517 54.6023V74.9247H367.83V54.6023C367.83 52.652 367.384 51.1478 366.491 50.0896C365.599 49.0107 364.24 48.4713 362.414 48.4713C361.087 48.4713 359.842 48.7721 358.68 49.3738C357.518 49.9755 356.418 50.795 355.381 51.8324V74.9247H347.694V42.9939H352.393C353.389 42.9939 354.043 43.4607 354.354 44.3943L354.883 46.9152ZM402.87 51.1478C401.998 50.0896 401.044 49.3427 400.007 48.907C398.99 48.4713 397.89 48.2534 396.708 48.2534C395.546 48.2534 394.498 48.4713 393.564 48.907C392.631 49.3427 391.832 50.0066 391.168 50.8988C390.504 51.7702 389.996 52.8906 389.643 54.2599C389.29 55.6085 389.114 57.2061 389.114 59.0527C389.114 60.92 389.259 62.5072 389.55 63.8143C389.861 65.1007 390.297 66.1588 390.857 66.9887C391.417 67.7979 392.102 68.3892 392.911 68.7626C393.72 69.1154 394.622 69.2917 395.618 69.2917C397.216 69.2917 398.575 68.9597 399.695 68.2958C400.816 67.6319 401.874 66.6879 402.87 65.4637V51.1478ZM410.557 28.6779V74.9247H405.857C404.841 74.9247 404.198 74.4579 403.928 73.5243L403.274 70.4432C401.988 71.9163 400.505 73.1093 398.824 74.0222C397.164 74.9351 395.224 75.3916 393.004 75.3916C391.261 75.3916 389.664 75.0285 388.211 74.3023C386.759 73.5761 385.504 72.5284 384.446 71.159C383.408 69.7689 382.599 68.0572 382.018 66.0239C381.458 63.9906 381.178 61.6669 381.178 59.0527C381.178 56.6874 381.5 54.4882 382.143 52.4549C382.786 50.4216 383.709 48.658 384.913 47.1642C386.116 45.6703 387.558 44.5085 389.238 43.6785C390.919 42.8279 392.807 42.4026 394.903 42.4026C396.687 42.4026 398.212 42.6826 399.477 43.2428C400.743 43.803 401.874 44.5603 402.87 45.5147V28.6779H410.557Z" fill="white"/>
</svg>
