<svg width="469" height="136" viewBox="0 0 469 136" fill="none" xmlns="http://www.w3.org/2000/svg">
<path d="M115.379 57.6895C115.379 89.5506 89.5506 115.379 57.6895 115.379C25.8285 115.379 0 89.5506 0 57.6895C0 25.8285 25.8285 0 57.6895 0C89.5506 0 115.379 25.8285 115.379 57.6895ZM21.8921 57.6895C21.8921 77.4599 37.9192 93.487 57.6895 93.487C77.4599 93.487 93.487 77.4599 93.487 57.6895C93.487 37.9192 77.4599 21.8921 57.6895 21.8921C37.9192 21.8921 21.8921 37.9192 21.8921 57.6895Z" fill="#8FB7FF"/>
<circle cx="57.6899" cy="57.6895" r="25.4907" fill="#1D6AF4"/>
<path fill-rule="evenodd" clip-rule="evenodd" d="M57.6891 111.493L40.248 112.696C40.248 112.696 42.1717 113.372 43.2362 114.61C44.4516 116.022 51.748 127.465 55.4854 133.361C56.4735 134.919 56.9711 135.704 57.6891 135.725V111.493Z" fill="#8CC8ED"/>
<path fill-rule="evenodd" clip-rule="evenodd" d="M57.6898 111.493L75.1309 112.696C75.1309 112.696 73.2072 113.372 72.1427 114.61C70.9273 116.022 63.6309 127.465 59.8935 133.361C58.9054 134.919 58.4078 135.704 57.6898 135.725V111.493Z" fill="#8CC8ED"/>
<mask id="mask0_111_9162" style="mask-type:alpha" maskUnits="userSpaceOnUse" x="0" y="0" width="116" height="136">
<path d="M115.379 57.6895C115.379 89.5506 89.5506 115.379 57.6895 115.379C25.8285 115.379 0 89.5506 0 57.6895C0 25.8285 25.8285 0 57.6895 0C89.5506 0 115.379 25.8285 115.379 57.6895ZM21.8921 57.6895C21.8921 77.4599 37.9192 93.487 57.6895 93.487C77.4599 93.487 93.487 77.4599 93.487 57.6895C93.487 37.9192 77.4599 21.8921 57.6895 21.8921C37.9192 21.8921 21.8921 37.9192 21.8921 57.6895Z" fill="#FF0000"/>
<circle cx="57.6899" cy="57.6895" r="25.4907" fill="#FF0000"/>
<path fill-rule="evenodd" clip-rule="evenodd" d="M57.6891 111.493L40.248 112.696C40.248 112.696 42.1717 113.372 43.2362 114.61C44.4516 116.022 51.748 127.465 55.4854 133.361C56.4735 134.919 56.9711 135.704 57.6891 135.725V111.493Z" fill="#FF0000"/>
<path fill-rule="evenodd" clip-rule="evenodd" d="M57.6898 111.493L75.1309 112.696C75.1309 112.696 73.2072 113.372 72.1427 114.61C70.9273 116.022 63.6309 127.465 59.8935 133.361C58.9054 134.919 58.4078 135.704 57.6898 135.725V111.493Z" fill="#FF0000"/>
</mask>
<g mask="url(#mask0_111_9162)">
<circle cx="57.8959" cy="159.946" r="76.2709" fill="#1D6AF4"/>
</g>
<path d="M156.623 42.7867V55.6581H173.994V64.7623H156.623V84.5405H144.763V33.7173H177.482V42.7867H156.623ZM194.08 48.3678V84.5405H183.266V48.3678H194.08ZM195.196 38.4613C195.196 39.3217 195.022 40.1356 194.673 40.903C194.324 41.6472 193.847 42.3099 193.243 42.8913C192.638 43.4494 191.929 43.9029 191.115 44.2517C190.324 44.5773 189.475 44.74 188.568 44.74C187.685 44.74 186.859 44.5773 186.092 44.2517C185.324 43.9029 184.638 43.4494 184.034 42.8913C183.452 42.3099 182.987 41.6472 182.638 40.903C182.313 40.1356 182.15 39.3217 182.15 38.4613C182.15 37.5776 182.313 36.7521 182.638 35.9847C182.987 35.2172 183.452 34.5429 184.034 33.9615C184.638 33.3801 185.324 32.9267 186.092 32.6011C186.859 32.2755 187.685 32.1127 188.568 32.1127C189.475 32.1127 190.324 32.2755 191.115 32.6011C191.929 32.9267 192.638 33.3801 193.243 33.9615C193.847 34.5429 194.324 35.2172 194.673 35.9847C195.022 36.7521 195.196 37.5776 195.196 38.4613ZM211.598 52.2746C212.295 51.6234 213.016 51.0188 213.76 50.4607C214.504 49.9026 215.295 49.4375 216.132 49.0654C216.993 48.6701 217.911 48.3678 218.888 48.1585C219.888 47.9259 220.969 47.8097 222.132 47.8097C224.109 47.8097 225.853 48.1585 227.364 48.8561C228.899 49.5305 230.19 50.484 231.236 51.7165C232.283 52.9257 233.073 54.3791 233.608 56.0767C234.143 57.7511 234.411 59.5765 234.411 61.5532V84.5405H223.597V61.5532C223.597 59.7858 223.19 58.4138 222.376 57.4371C221.562 56.4372 220.365 55.9372 218.783 55.9372C217.597 55.9372 216.481 56.193 215.435 56.7046C214.411 57.1929 213.412 57.8673 212.435 58.7277V84.5405H201.621V48.3678H208.319C209.668 48.3678 210.551 48.9724 210.97 50.1816L211.598 52.2746ZM263.35 58.065C262.536 57.1581 261.652 56.5302 260.698 56.1814C259.745 55.8093 258.745 55.6232 257.699 55.6232C256.699 55.6232 255.78 55.8209 254.943 56.2162C254.106 56.6116 253.373 57.2511 252.745 58.1348C252.141 58.9952 251.664 60.123 251.315 61.5183C250.966 62.9136 250.792 64.5996 250.792 66.5762C250.792 68.4831 250.932 70.0877 251.211 71.3899C251.49 72.6922 251.873 73.7503 252.362 74.5642C252.873 75.3549 253.478 75.9246 254.176 76.2734C254.873 76.6222 255.652 76.7967 256.513 76.7967C257.303 76.7967 258.013 76.7269 258.64 76.5874C259.292 76.4246 259.885 76.2037 260.419 75.9246C260.954 75.6455 261.454 75.2967 261.919 74.8781C262.408 74.4363 262.884 73.9363 263.35 73.3782V58.065ZM274.163 32.322V84.5405H267.466C266.117 84.5405 265.233 83.9358 264.815 82.7266L263.977 79.9709C263.257 80.7383 262.501 81.436 261.71 82.0638C260.919 82.6917 260.059 83.2382 259.129 83.7033C258.222 84.1451 257.234 84.4823 256.164 84.7149C255.117 84.9707 253.978 85.0986 252.745 85.0986C250.862 85.0986 249.118 84.68 247.513 83.8428C245.909 83.0057 244.525 81.7964 243.362 80.2151C242.199 78.6338 241.281 76.7036 240.606 74.4247C239.955 72.1225 239.63 69.5063 239.63 66.5762C239.63 63.8787 240.002 61.3788 240.746 59.0766C241.49 56.7511 242.537 54.7512 243.885 53.0769C245.257 51.3793 246.897 50.0537 248.804 49.1003C250.711 48.1469 252.815 47.6701 255.117 47.6701C257.001 47.6701 258.582 47.9376 259.861 48.4724C261.14 49.0073 262.303 49.7282 263.35 50.6351V32.322H274.163Z" fill="#1D6AF4"/>
<path d="M310.804 44.0424C310.456 44.6005 310.083 45.0191 309.688 45.2982C309.316 45.5772 308.828 45.7167 308.223 45.7167C307.688 45.7167 307.107 45.554 306.479 45.2284C305.874 44.8796 305.177 44.4959 304.386 44.0773C303.619 43.6587 302.735 43.2866 301.735 42.9611C300.735 42.6122 299.596 42.4378 298.317 42.4378C296.107 42.4378 294.456 42.9146 293.363 43.868C292.294 44.7982 291.759 46.0656 291.759 47.6701C291.759 48.6933 292.084 49.5421 292.735 50.2165C293.387 50.8909 294.235 51.4723 295.282 51.9606C296.352 52.449 297.561 52.9024 298.91 53.321C300.282 53.7164 301.677 54.1698 303.095 54.6814C304.514 55.1698 305.898 55.7511 307.246 56.4255C308.618 57.0999 309.828 57.9603 310.874 59.0068C311.944 60.0533 312.804 61.3323 313.455 62.8438C314.107 64.3321 314.432 66.1344 314.432 68.2505C314.432 70.5993 314.025 72.7968 313.211 74.8433C312.397 76.8897 311.211 78.6803 309.653 80.2151C308.118 81.7266 306.212 82.9243 303.933 83.8079C301.677 84.6684 299.107 85.0986 296.224 85.0986C294.642 85.0986 293.026 84.9358 291.375 84.6102C289.747 84.2847 288.166 83.8312 286.631 83.2498C285.096 82.6452 283.655 81.9359 282.306 81.122C280.957 80.3081 279.783 79.4012 278.783 78.4012L282.271 72.8899C282.55 72.4945 282.91 72.169 283.352 71.9132C283.817 71.6341 284.317 71.4946 284.852 71.4946C285.55 71.4946 286.247 71.7155 286.945 72.1573C287.666 72.5992 288.468 73.0875 289.352 73.6224C290.259 74.1572 291.294 74.6456 292.456 75.0874C293.619 75.5293 294.991 75.7502 296.572 75.7502C298.712 75.7502 300.375 75.2851 301.561 74.3549C302.747 73.4015 303.34 71.9015 303.34 69.8551C303.34 68.6691 303.014 67.7041 302.363 66.9599C301.712 66.2158 300.851 65.5995 299.782 65.1112C298.735 64.6228 297.538 64.1926 296.189 63.8205C294.84 63.4485 293.456 63.0415 292.038 62.5997C290.619 62.1346 289.236 61.5764 287.887 60.9253C286.538 60.2509 285.329 59.3789 284.259 58.3092C283.213 57.2162 282.364 55.8674 281.713 54.2628C281.062 52.635 280.736 50.6351 280.736 48.2631C280.736 46.3562 281.12 44.4959 281.887 42.682C282.655 40.8681 283.782 39.2519 285.271 37.8334C286.759 36.4149 288.585 35.287 290.747 34.4498C292.91 33.5894 295.387 33.1592 298.177 33.1592C299.735 33.1592 301.247 33.2871 302.712 33.5429C304.2 33.7755 305.607 34.1359 306.932 34.6242C308.258 35.0893 309.49 35.6591 310.63 36.3335C311.793 36.9846 312.828 37.7288 313.734 38.5659L310.804 44.0424ZM352.611 48.3678L338.588 84.5405H328.751L314.729 48.3678H323.728C324.496 48.3678 325.135 48.5538 325.647 48.9259C326.182 49.2747 326.542 49.7166 326.728 50.2514L331.751 66.4716C332.193 67.7971 332.577 69.0877 332.902 70.3435C333.251 71.5992 333.553 72.855 333.809 74.1107C334.321 71.5992 335.03 69.0528 335.937 66.4716L341.169 50.2514C341.355 49.7166 341.704 49.2747 342.216 48.9259C342.727 48.5538 343.332 48.3678 344.03 48.3678H352.611ZM377.411 62.1113C377.411 61.2509 377.294 60.4137 377.062 59.5998C376.852 58.7859 376.492 58.065 375.98 57.4371C375.492 56.786 374.841 56.2627 374.027 55.8674C373.213 55.4721 372.225 55.2744 371.062 55.2744C369.016 55.2744 367.411 55.8674 366.248 57.0534C365.086 58.2161 364.318 59.9021 363.946 62.1113H377.411ZM363.807 68.3901C364.155 71.4132 365.074 73.6108 366.562 74.9828C368.051 76.3316 369.969 77.0059 372.318 77.0059C373.574 77.0059 374.655 76.8548 375.562 76.5525C376.469 76.2502 377.271 75.913 377.969 75.5409C378.69 75.1688 379.341 74.8316 379.922 74.5293C380.527 74.227 381.155 74.0759 381.806 74.0759C382.666 74.0759 383.317 74.3898 383.759 75.0177L386.898 78.8896C385.782 80.1686 384.573 81.215 383.271 82.029C381.992 82.8196 380.666 83.4475 379.294 83.9126C377.945 84.3544 376.585 84.6567 375.213 84.8195C373.864 85.0056 372.574 85.0986 371.341 85.0986C368.806 85.0986 366.423 84.6916 364.19 83.8777C361.981 83.0405 360.039 81.808 358.365 80.1802C356.714 78.5524 355.4 76.5292 354.423 74.1107C353.47 71.6922 352.993 68.8784 352.993 65.6693C352.993 63.2508 353.4 60.9602 354.214 58.7975C355.051 56.6348 356.237 54.7396 357.772 53.1117C359.33 51.4839 361.202 50.1933 363.388 49.2398C365.597 48.2864 368.085 47.8097 370.853 47.8097C373.248 47.8097 375.434 48.1817 377.411 48.9259C379.41 49.67 381.12 50.7514 382.538 52.1699C383.98 53.5885 385.096 55.3326 385.887 57.4022C386.701 59.4486 387.108 61.7741 387.108 64.3786C387.108 65.1926 387.073 65.8553 387.003 66.3669C386.933 66.8785 386.805 67.2855 386.619 67.5878C386.433 67.8901 386.178 68.0994 385.852 68.2157C385.55 68.3319 385.154 68.3901 384.666 68.3901H363.807ZM402.495 52.2746C403.193 51.6234 403.914 51.0188 404.658 50.4607C405.402 49.9026 406.193 49.4375 407.03 49.0654C407.89 48.6701 408.809 48.3678 409.785 48.1585C410.785 47.9259 411.867 47.8097 413.029 47.8097C415.006 47.8097 416.75 48.1585 418.262 48.8561C419.797 49.5305 421.087 50.484 422.134 51.7165C423.18 52.9257 423.971 54.3791 424.506 56.0767C425.041 57.7511 425.308 59.5765 425.308 61.5532V84.5405H414.495V61.5532C414.495 59.7858 414.088 58.4138 413.274 57.4371C412.46 56.4372 411.262 55.9372 409.681 55.9372C408.495 55.9372 407.379 56.193 406.332 56.7046C405.309 57.1929 404.309 57.8673 403.332 58.7277V84.5405H392.519V48.3678H399.216C400.565 48.3678 401.449 48.9724 401.867 50.1816L402.495 52.2746ZM454.247 58.065C453.433 57.1581 452.549 56.5302 451.596 56.1814C450.643 55.8093 449.643 55.6232 448.596 55.6232C447.596 55.6232 446.678 55.8209 445.84 56.2162C445.003 56.6116 444.271 57.2511 443.643 58.1348C443.038 58.9952 442.561 60.123 442.213 61.5183C441.864 62.9136 441.689 64.5996 441.689 66.5762C441.689 68.4831 441.829 70.0877 442.108 71.3899C442.387 72.6922 442.771 73.7503 443.259 74.5642C443.771 75.3549 444.375 75.9246 445.073 76.2734C445.771 76.6222 446.55 76.7967 447.41 76.7967C448.201 76.7967 448.91 76.7269 449.538 76.5874C450.189 76.4246 450.782 76.2037 451.317 75.9246C451.852 75.6455 452.352 75.2967 452.817 74.8781C453.305 74.4363 453.782 73.9363 454.247 73.3782V58.065ZM465.06 32.322V84.5405H458.363C457.014 84.5405 456.131 83.9358 455.712 82.7266L454.875 79.9709C454.154 80.7383 453.398 81.436 452.608 82.0638C451.817 82.6917 450.956 83.2382 450.026 83.7033C449.119 84.1451 448.131 84.4823 447.061 84.7149C446.015 84.9707 444.875 85.0986 443.643 85.0986C441.759 85.0986 440.015 84.68 438.411 83.8428C436.806 83.0057 435.422 81.7964 434.26 80.2151C433.097 78.6338 432.178 76.7036 431.504 74.4247C430.853 72.1225 430.527 69.5063 430.527 66.5762C430.527 63.8787 430.899 61.3788 431.643 59.0766C432.388 56.7511 433.434 54.7512 434.783 53.0769C436.155 51.3793 437.794 50.0537 439.701 49.1003C441.608 48.1469 443.713 47.6701 446.015 47.6701C447.898 47.6701 449.48 47.9376 450.759 48.4724C452.038 49.0073 453.201 49.7282 454.247 50.6351V32.322H465.06Z" fill="#BBBBBB"/>
</svg>
